<svg version="1.1" xmlns="http://www.w3.org/2000/svg" xmlns:xlink="http://www.w3.org/1999/xlink" x="0px" y="0px" width="54px" height="97.5px" viewBox="0 0 36 65.333" enable-background="new 0 0 36 65.333" xml:space="preserve"> <g> <g> <path fill="#231815" d="M10.589,48.596c-0.41-0.854-0.907-1.786-1.403-2.569c-0.035-0.062-0.052-0.122-0.052-0.184 c0-0.122,0.061-0.235,0.174-0.287c0.061-0.026,0.113-0.035,0.174-0.035c0.132,0,0.253,0.07,0.341,0.191 c0.775,1.168,1.559,2.675,2.046,3.911c0.036,0.087,0.053,0.156,0.053,0.227c0,0.166-0.097,0.288-0.279,0.357 c-0.061,0.026-0.113,0.034-0.173,0.034c-0.14,0-0.253-0.078-0.307-0.217c-0.086-0.253-0.183-0.471-0.313-0.767 c-1.663,0.312-3.979,0.549-6.045,0.627c-0.008,0-0.025,0-0.034,0c-0.209,0-0.366-0.131-0.374-0.349c0-0.018,0-0.035,0-0.043 c0-0.227,0.129-0.384,0.321-0.384c0.104-0.009,0.209-0.009,0.313-0.009s0.21,0,0.313,0c0.88-1.803,1.63-3.876,2.126-5.74 c0.062-0.218,0.175-0.305,0.348-0.305c0.036,0,0.079,0,0.113,0.009c0.201,0.043,0.323,0.183,0.323,0.374 c0,0.043-0.009,0.087-0.018,0.123c-0.515,1.855-1.307,3.901-2.082,5.505C7.608,49.014,9.403,48.813,10.589,48.596z"/> <path fill="#231815" d="M13.554,47.193c-0.218,0-0.34-0.14-0.34-0.376c0-0.226,0.122-0.392,0.349-0.392h6.611 c0.227,0,0.349,0.166,0.349,0.392c0,0.236-0.122,0.376-0.34,0.376H13.554z"/> <path fill="#231815" d="M27.286,43.953c0.417,0,0.671,0.104,0.837,0.313c0.121,0.156,0.183,0.374,0.183,0.626 c0,0.079-0.01,0.157-0.018,0.245c-0.375,2.647-2.204,4.634-5.097,5.348c-0.06,0.018-0.113,0.026-0.165,0.026 c-0.157,0-0.278-0.088-0.322-0.244c-0.018-0.053-0.018-0.096-0.018-0.139c0-0.175,0.096-0.314,0.278-0.366 c2.509-0.662,4.217-2.309,4.504-4.651c0.009-0.044,0.009-0.088,0.009-0.13c0-0.228-0.113-0.289-0.383-0.289h-5.079 c-0.199,0-0.313-0.156-0.313-0.374c0-0.209,0.122-0.365,0.313-0.365H27.286z M27.887,42.725c0.123,0,0.175,0.052,0.236,0.122 c0.242,0.296,0.521,0.74,0.661,1.037c0.026,0.061,0.044,0.121,0.044,0.235c0,0.129-0.131,0.226-0.27,0.226 c-0.14,0-0.21-0.07-0.253-0.174c-0.14-0.314-0.384-0.715-0.603-1.011c-0.052-0.062-0.077-0.13-0.077-0.2 C27.626,42.838,27.748,42.725,27.887,42.725z M29.02,42.437c0.096,0,0.157,0.052,0.227,0.122c0.209,0.245,0.487,0.706,0.636,1.011 c0.025,0.052,0.034,0.131,0.034,0.183c0,0.174-0.121,0.261-0.27,0.261c-0.131,0-0.184-0.06-0.235-0.156 c-0.165-0.349-0.365-0.696-0.574-0.984c-0.07-0.086-0.088-0.131-0.088-0.2C28.749,42.532,28.88,42.437,29.02,42.437z"/> <path fill="#231815" d="M6.654,53.78c-0.148,0-0.262-0.148-0.262-0.339c0-0.175,0.113-0.332,0.262-0.332h1.725 c0.531,0,0.784,0.201,0.792,0.723c0.018,1.151,0.332,2.188,0.907,3.25c0.566,1.036,1.566,2.056,2.535,2.647 c0.104,0.07,0.165,0.184,0.165,0.306c0,0.078-0.026,0.166-0.079,0.243c-0.086,0.113-0.199,0.175-0.322,0.175 c-0.078,0-0.165-0.025-0.243-0.079c-1.568-1.053-2.85-2.665-3.302-4.817c-0.506,2.161-1.795,3.824-3.354,4.835 c-0.096,0.062-0.184,0.088-0.262,0.088c-0.131,0-0.235-0.062-0.322-0.184c-0.053-0.078-0.078-0.156-0.078-0.235 c0-0.112,0.069-0.227,0.19-0.304c1.002-0.629,1.935-1.568,2.519-2.658c0.558-1.045,0.897-2.134,0.914-3.074 c0-0.2-0.069-0.244-0.269-0.244H6.654z"/> <path fill="#231815" d="M14.995,61.307c-0.053,0.148-0.148,0.218-0.279,0.218c-0.052,0-0.104-0.009-0.165-0.035 c-0.157-0.061-0.253-0.147-0.253-0.279c0-0.043,0.01-0.086,0.026-0.13l2.936-7.701c0.053-0.139,0.166-0.217,0.306-0.217 c0.052,0,0.104,0.009,0.156,0.026c0.148,0.052,0.235,0.156,0.235,0.287c0,0.044-0.01,0.088-0.025,0.14L14.995,61.307z"/> <path fill="#231815" d="M20.307,53.006c0-0.157,0.132-0.245,0.314-0.245c0.2,0,0.321,0.088,0.321,0.245v1.906l1.777-0.373 c0.035-0.01,0.062-0.01,0.088-0.01c0.13,0,0.227,0.087,0.253,0.236c0.008,0.033,0.008,0.069,0.008,0.104 c0,0.14-0.069,0.227-0.217,0.261l-1.909,0.401v2.282c0,0.262,0.054,0.33,0.41,0.33c0.488,0,0.697-0.068,0.784-0.27 c0.104-0.227,0.14-0.635,0.148-1.002c0-0.156,0.113-0.252,0.278-0.252c0.009,0,0.018,0,0.026,0 c0.191,0.009,0.305,0.114,0.305,0.279c0,0.008,0,0.008,0,0.018c-0.018,0.583-0.104,1.08-0.288,1.401 c-0.104,0.192-0.27,0.341-0.583,0.409c-0.218,0.036-0.453,0.062-0.688,0.062c-0.2,0-0.393-0.018-0.565-0.044 c-0.34-0.061-0.463-0.278-0.463-0.679v-2.396l-0.679,0.14c-0.018,0.008-0.044,0.008-0.062,0.008c-0.121,0-0.217-0.096-0.243-0.262 c-0.01-0.034-0.01-0.061-0.01-0.086c0-0.018,0-0.034,0-0.044c0.019-0.122,0.088-0.191,0.219-0.217l0.774-0.166V53.006z M22.658,53.85c-0.165,0-0.252-0.13-0.252-0.305c0-0.183,0.087-0.313,0.252-0.313h3.764c0.558,0,0.819,0.262,0.819,0.775 c0,1.951-0.14,4.076-0.452,5.471c-0.157,0.697-0.507,0.958-1.299,0.958c-0.305,0-0.645-0.025-0.906-0.087 c-0.13-0.026-0.243-0.14-0.243-0.313c0-0.035,0-0.061,0.008-0.097c0.036-0.182,0.149-0.27,0.279-0.27c0.026,0,0.053,0,0.079,0.008 c0.199,0.053,0.479,0.097,0.695,0.097c0.454,0,0.619-0.097,0.732-0.593c0.271-1.193,0.418-3.327,0.418-5.052 c0-0.191-0.096-0.279-0.312-0.279h-1.438c-0.009,1.194-0.139,2.378-0.427,3.311c-0.392,1.342-1.114,2.457-2.335,3.31 c-0.086,0.062-0.182,0.097-0.27,0.097c-0.104,0-0.209-0.044-0.279-0.131c-0.06-0.069-0.087-0.157-0.087-0.227 c0-0.104,0.053-0.209,0.148-0.271c1.098-0.714,1.804-1.629,2.187-2.987c0.244-0.837,0.383-1.934,0.393-3.102H22.658z"/> </g> </g> <g> <circle fill="#2A4D9E" cx="26.107" cy="8.205" r="4.216"/> <path fill="#2A4D9E" d="M29.761,26.333c0,2.25-1.825,4.074-4.076,4.074l0,0c-2.25,0-4.075-1.824-4.075-4.074V17.62 c0-2.251,1.824-4.075,4.075-4.075l0,0c2.251,0,4.076,1.824,4.076,4.075V26.333z"/> <path fill="#2A4D9E" d="M26.363,27.636c-0.153,1.855,0.756,2.854-1.1,2.701l-10.381-0.264c-1.856-0.152-3.237-1.782-3.084-3.639 l0,0c0.153-1.855,1.782-3.237,3.638-3.084l7.843,0.646C25.135,24.15,26.517,25.779,26.363,27.636L26.363,27.636z"/> <path fill="#2A4D9E" d="M6.574,35.572c0,1.125-0.912,2.037-2.038,2.037l0,0c-1.125,0-2.038-0.912-2.038-2.037l0,0 c0-1.126,0.912-2.038,2.038-2.038l0,0C5.662,33.534,6.574,34.446,6.574,35.572L6.574,35.572z"/> <polyline fill="#2A4D9E" points="5.344,37.47 14.882,30.073 12.668,24.506 2.99,34.185 "/> <g> <circle fill="#2A4D9E" cx="26.669" cy="36.357" r="0.906"/> <circle fill="#2A4D9E" cx="29.493" cy="35.342" r="0.906"/> <circle fill="#2A4D9E" cx="32.336" cy="34.391" r="0.906"/> <circle fill="#2A4D9E" cx="25.622" cy="33.559" r="0.906"/> <circle fill="#2A4D9E" cx="23.012" cy="34.466" r="0.906"/> <circle fill="#2A4D9E" cx="28.447" cy="32.544" r="0.906"/> <circle fill="#2A4D9E" cx="31.29" cy="31.591" r="0.906"/> <circle fill="#2A4D9E" cx="34.094" cy="30.674" r="0.906"/> <circle fill="#2A4D9E" cx="30.707" cy="38.169" r="0.907"/> <circle fill="#2A4D9E" cx="31.677" cy="41.09" r="0.906"/> <circle fill="#2A4D9E" cx="32.804" cy="43.837" r="0.906"/> </g> </g> </svg>